# xmcd
#
# Track frame offsets:
# 150
# 16346
# 31178
# 45401
# 62631
# 80150
# 99370
# 115487
# 131465
# 147982
# 163659
#
# Disc length: 2237 seconds
#
#
# Revision: 0
# Processed by: cddbd v1.5.1PL0 Copyright (c) Steve Scherf et al.
# Submitted via: FreeRIP 2.942 
#
DISCID=8c08bb0b
DTITLE=A KAVALARIA - COWBOY DO ASPHALTO
DYEAR=2005
DGENRE=COUNTRY
TTITLE0=Peão De Rodeio
TTITLE1=Por Que Sobre Um Homem
TTITLE2=Te Encontrar
TTITLE3=Quando Dei Por  Mim
TTITLE4=Vinte E Nove
TTITLE5=Cowboy Do Asphalto
TTITLE6=Não Tenha Mais Fim
TTITLE7=Ela Vai Voltar
TTITLE8=Arco Iris Sem Cor
TTITLE9=Coração Sem Dono
TTITLE10=Blackfoot
EXTD=
EXTT0=
EXTT1=
EXTT2=
EXTT3=
EXTT4=
EXTT5=
EXTT6=
EXTT7=
EXTT8=
EXTT9=
EXTT10=
PLAYORDER=
